<svg class="spidey-love" viewBox="0 0 477.01 477.01">
  <circle class="spidey-face-bg" cx="238.51" cy="238.51" r="238.51"/>
  <path d="M455.96,140.38c-.35-.78-.71-1.55-1.07-2.33l-26.77,7.17c-8.76-4.86-24.07-15.21-35.53-34.22-13.25-21.99-13.96-43.32-13.61-52.88l7.05-7.05c-.67-.53-1.34-1.05-2.01-1.56l-7.34,7.34c-9.94.2-28.56-1.01-48.21-11.87-22.22-12.28-33.5-30.13-38.08-38.7l.16-.6c-.82-.18-1.65-.36-2.47-.54l-.19.73c-8.42,5.13-25.27,13.57-47.96,14-25.34.48-44.01-9.31-52.28-14.45-.96.21-1.93.42-2.88.65l.2.73c-4.85,8.75-15.19,24.11-34.26,35.61-22.29,13.44-43.91,13.98-53.27,13.6l-5.59-5.59c-.67.52-1.33,1.05-2,1.58l6.71,6.71c.16,10.03-1.15,28.43-11.87,47.83-12.65,22.89-31.22,34.17-39.45,38.48l-23.41-6.27c-.36.77-.71,1.55-1.06,2.33l25.25,6.77c5.16,8.64,13.15,25.18,13.57,47.25.49,26.15-9.95,45.2-14.93,53.05L.94,259.85c.08.85.16,1.7.24,2.55l45.54-12.2c8.78,4.9,23.98,15.23,35.37,34.13,13.54,22.48,13.99,44.26,13.59,53.49l-46.18,46.18c.52.67,1.04,1.34,1.56,2.01l47.54-47.54c10.08-.14,28.35,1.23,47.61,11.88,23.04,12.73,34.31,31.45,38.56,39.61l-20.2,75.38c.8.26,1.6.52,2.41.77l20.68-77.17c8.68-5.16,25.16-13.07,47.1-13.48,26.27-.49,45.37,10.04,53.15,15l20.41,76.18c.81-.25,1.61-.5,2.41-.75l-20.82-77.69c4.92-8.8,15.25-23.92,34.07-35.27,22.51-13.56,44.32-13.99,53.53-13.59l47.65,47.65c.53-.66,1.05-1.33,1.57-2l-48.61-48.61c-.14-10.08,1.24-28.34,11.88-47.58,12.66-22.9,31.23-34.18,39.46-38.48l46.32,12.41c.09-.85.17-1.7.24-2.55l-47.36-12.69c-5.16-8.64-13.15-25.18-13.56-47.24-.49-25.98,9.81-44.95,14.83-52.89l26.01-6.97ZM377.02,60.08c-.28,9.7.64,30.65,13.67,52.27,11.05,18.34,25.67,28.61,34.49,33.67l-107.03,28.68c-4.92-3.03-10.4-7.67-14.65-14.68-4.3-7.1-5.88-14.23-6.24-20.18l79.76-79.76ZM311.15,198.14c.2,7.78,2.43,14.24,5.01,19.19l-65.46-17.54c.1-.67.16-1.36.16-2.06,0-.8-.07-1.58-.21-2.34l64.86-17.38c-2.53,5.27-4.57,12.07-4.36,20.12ZM163.53,197.2c-.2-7.78-2.44-14.25-5.02-19.2l65.58,17.57c-.11.7-.18,1.43-.18,2.16,0,.79.07,1.56.2,2.32l-65.02,17.42c2.56-5.29,4.64-12.14,4.43-20.27ZM242.43,185.25l17.31-64.61c3.29,4.68,8.07,9.63,14.91,13.34,7.04,3.82,13.95,5.09,19.62,5.27l-48.19,48.19c-1.08-.92-2.31-1.66-3.64-2.2ZM248.02,197.73c0,5.86-4.77,10.63-10.63,10.63s-10.63-4.77-10.63-10.63,4.77-10.63,10.63-10.63,10.63,4.77,10.63,10.63ZM240.01,184.52c-.85-.17-1.73-.26-2.63-.26-.76,0-1.51.07-2.23.19l-17.39-64.91c5.26,2.51,12.03,4.53,20.05,4.32,8.15-.21,14.87-2.65,19.9-5.39l-17.7,66.05ZM232.71,185.1c-1.45.54-2.78,1.31-3.94,2.29l-47.58-47.58c5.84-.44,12.76-2.07,19.65-6.29,6.74-4.13,11.26-9.39,14.26-14.16l17.62,65.75ZM226.99,189.17c-.96,1.17-1.73,2.5-2.26,3.95l-65.05-17.43c4.87-3.3,10.09-8.19,13.97-15.34,3.74-6.89,5.03-13.66,5.26-19.26l48.08,48.08ZM224.79,202.48c.55,1.44,1.33,2.77,2.31,3.92l-47.61,47.61c-.42-5.88-2.04-12.88-6.3-19.85-4.06-6.64-9.23-11.12-13.94-14.12l65.55-17.56ZM228.9,208.18c1.18.96,2.52,1.72,3.98,2.24l-17.43,65.03c-3.3-4.9-8.22-10.18-15.43-14.1-6.81-3.7-13.49-5-19.06-5.25l47.92-47.92ZM235.33,211.04c.67.1,1.36.16,2.06.16.83,0,1.65-.08,2.44-.23l17.41,64.98c-5.31-2.58-12.19-4.69-20.37-4.48-7.71.2-14.13,2.39-19.06,4.94l17.52-65.38ZM242.26,210.29c1.43-.56,2.74-1.35,3.89-2.34l47.57,47.57c-5.89.42-12.9,2.03-19.88,6.31-6.59,4.04-11.06,9.16-14.06,13.85l-17.52-65.39ZM247.91,206.13c.93-1.16,1.67-2.47,2.17-3.89l64.93,17.4c-4.87,3.3-10.09,8.2-13.98,15.34-3.69,6.79-5,13.47-5.25,19.02l-47.87-47.87ZM249.98,192.96c-.51-1.35-1.24-2.6-2.14-3.71l47.39-47.39c.48,5.77,2.13,12.55,6.26,19.3,4.11,6.71,9.34,11.21,14.09,14.21l-65.6,17.58ZM289.67,8.96c4.71,8.65,15.97,26.07,37.81,38.14,18.94,10.47,36.91,11.98,47.02,11.92l-78.36,78.36c-5.84-.13-13.03-1.38-20.34-5.4-7.16-3.93-12.04-9.21-15.32-14.11l29.18-108.91ZM240.12,22.2c21.87-.41,38.31-8.25,46.96-13.36l-28.68,107.05c-5.15,2.87-12.1,5.47-20.59,5.65-8.41.18-15.44-2.08-20.79-4.79L187.82,7.78c8.16,5.06,26.86,14.9,52.31,14.43ZM152.02,44.32c18.39-11.08,28.67-25.75,33.71-34.56l28.68,107.03c-3.03,4.94-7.68,10.45-14.73,14.72-7.25,4.39-14.51,5.94-20.53,6.25L99.37,57.98c9.52.31,30.75-.46,52.65-13.66ZM86.78,107.53c10.34-18.71,11.94-36.48,11.92-46.65l78.35,78.35c-.17,5.77-1.45,12.82-5.39,19.98-4.11,7.48-9.68,12.47-14.76,15.75l-109.01-29.21c8.35-4.45,26.46-15.73,38.89-38.22ZM61.88,194.88c-.4-21.28-7.83-37.42-12.94-46.25l107.02,28.68c2.71,5.07,5.09,11.78,5.26,19.89.18,8.53-2.15,15.63-4.9,21.02l-109.01,29.21c5.01-8.03,15.05-26.85,14.57-52.54ZM97.64,335.86c.33-9.41-.35-30.8-13.65-52.87-10.99-18.23-25.49-28.49-34.33-33.58l107.02-28.68c4.88,3.03,10.3,7.65,14.5,14.59,4.44,7.33,5.97,14.68,6.27,20.73l-79.8,79.8ZM185.49,387.27c-4.39-8.28-15.67-26.54-38.3-39.04-18.58-10.27-36.23-11.92-46.44-11.92l78.34-78.34c5.73.2,12.7,1.49,19.77,5.38,7.54,4.14,12.55,9.77,15.84,14.89l-29.21,109.03ZM234.56,373.13c-21.17.4-37.25,7.75-46.1,12.86l28.67-107.01c5.05-2.68,11.71-5.02,19.75-5.19,8.58-.18,15.72,2.18,21.12,4.96l29.21,109.02c-7.97-4.99-26.84-15.12-52.65-14.64ZM322.66,351.02c-18.16,10.94-28.41,25.38-33.52,34.23l-28.67-107.01c3.04-4.86,7.64-10.23,14.53-14.4,7.34-4.45,14.7-5.98,20.77-6.27l79.81,79.81c-9.4-.33-30.81.33-52.91,13.65ZM387.91,287.81c-10.26,18.56-11.92,36.19-11.92,46.4l-78.34-78.34c.2-5.73,1.5-12.68,5.38-19.74,4.11-7.48,9.68-12.47,14.76-15.75l109.01,29.21c-8.35,4.44-26.46,15.72-38.9,38.22ZM412.81,200.45c.4,21.28,7.83,37.41,12.93,46.24l-107.02-28.67c-2.71-5.07-5.09-11.77-5.26-19.88-.18-8.45,2.1-15.5,4.83-20.87l108.98-29.2c-5.04,8.12-14.95,26.86-14.47,52.38Z"/>
  <path d="M455.82,138.02c-.42-.68-.89-1.33-1.26-2.03-15.95-29.61-45.55-41.21-77.43-30.33-6.03,2.06-7.56,1.16-9.76-4.9-8.93-24.65-26.39-39.44-52.46-42-11.6-1.14-22.05.41-31.3,4.51-16.59,7.35-24.97,20.26-27.74,25.09-4.89,8.51-6.9,17.01-7.95,41.23-.65,15-.88,35.06.66,58.95-20.88,4.91,11.81,34.05,37.87,69.69,4.41,6.04,9.54,9.48,17.95,9.23,22.47-.68,44.09-5.06,65.12-12.57,26.76-9.55,51.39-22.75,70.68-44.21,8.12-9.04,29.1-39.55,32.45-51.62,3.97-14.33-11.64-7.41-16.83-21.03Z"/>
  <path class="cls-1" d="M440.84,140.82c-.37-.59-.78-1.16-1.11-1.78-13.95-25.92-39.86-36.07-67.76-26.54-5.28,1.8-6.62,1.02-8.54-4.29-7.82-21.57-23.1-34.51-45.91-36.76-22.21-2.19-39.61,6.94-51.67,25.9-4.98,7.84-6.42,16.86-8.74,25.6-.44,6.12-1.43,12.26-1.24,18.36,1.24,38.72,13.94,73.51,36.74,104.69,3.86,5.28,8.35,8.3,15.71,8.07,19.66-.59,38.58-4.43,56.99-11,23.42-8.36,44.98-19.91,61.86-38.69,7.11-7.91,13.29-16.48,16.22-27.05,3.48-12.54,1.99-24.61-2.55-36.53Z"/>
  <path d="M20.77,138.02c.42-.68.89-1.33,1.26-2.03,15.95-29.61,45.55-41.21,77.43-30.33,6.03,2.06,7.56,1.16,9.76-4.9,8.93-24.65,26.39-39.44,52.46-42,11.6-1.14,22.05.41,31.3,4.51,16.59,7.35,24.97,20.26,27.74,25.09,4.89,8.51,6.9,17.01,7.95,41.23.65,15,.88,35.06-.66,58.95,20.88,4.91-11.81,34.05-37.87,69.69-4.41,6.04-9.54,9.48-17.95,9.23-22.47-.68-44.09-5.06-65.12-12.57-26.76-9.55-51.39-22.75-70.68-44.21-8.12-9.04-29.1-39.55-32.45-51.62-3.97-14.33,11.64-7.41,16.83-21.03Z"/>
  <path class="cls-1" d="M35.75,140.82c.37-.59.78-1.16,1.11-1.78,13.95-25.92,39.86-36.07,67.76-26.54,5.28,1.8,6.62,1.02,8.54-4.29,7.82-21.57,23.1-34.51,45.91-36.76,22.21-2.19,39.61,6.94,51.67,25.9,4.98,7.84,6.42,16.86,8.74,25.6.44,6.12,1.43,12.26,1.24,18.36-1.24,38.72-13.94,73.51-36.74,104.69-3.86,5.28-8.35,8.3-15.71,8.07-19.66-.59-38.58-4.43-56.99-11-23.42-8.36-44.98-19.91-61.86-38.69-7.11-7.91-13.29-16.48-16.22-27.05-3.48-12.54-1.99-24.61,2.55-36.53Z"/>
</svg>